<svg id="Capa_1" enable-background="new 0 0 512.244 512.244" height="512" viewBox="0 0 512.244 512.244" width="512" xmlns="http://www.w3.org/2000/svg"><g id="XMLID_112_"><path id="XMLID_287_" d="m105.276 173.491h-30v-22.932c0-42.511 34.585-77.097 77.097-77.097h2.457v30h-2.457c-25.969 0-47.097 21.127-47.097 47.097z" fill="#e68a2e"/><path id="XMLID_286_" d="m310.043 173.135h-30v-22.576c0-25.969-21.128-47.097-47.097-47.097h-2.457v-30h2.457c42.512 0 77.097 34.585 77.097 77.097z" fill="#b36b24"/><path id="XMLID_285_" d="m512.244 264.604c-31.11 0-56.42-25.31-56.42-56.42v-30.534c0-21.646-17.61-39.255-39.256-39.255-38.188 0-69.255-31.067-69.255-69.255 0-21.306-17.334-38.64-38.64-38.64h-72.173c-15.903 0-28.84 12.938-28.84 28.84h-30c0-32.445 26.396-58.84 58.84-58.84h72.173c37.848 0 68.64 30.792 68.64 68.64 0 21.645 17.609 39.255 39.255 39.255 38.188 0 69.256 31.068 69.256 69.255v30.534c0 14.568 11.852 26.42 26.42 26.42z" fill="#8080ff"/><path id="XMLID_276_" d="m192.66 44.34c-29.843 0-54.122 24.279-54.122 54.122v61.856l108.244-.159v-61.697c0-29.843-24.279-54.122-54.122-54.122z" fill="#f3b254"/><path id="XMLID_4799_" d="m192.66 44.34v115.899l54.122-.08v-61.697c0-29.843-24.279-54.122-54.122-54.122z" fill="#cc9529"/><path id="XMLID_22_" d="" fill="none" stroke="#000" stroke-miterlimit="10" stroke-width="30"/><path id="XMLID_259_" d="m320.331 170.119h49.186v30h-49.186z" fill="#cc9529" transform="matrix(.707 -.707 .707 .707 -29.873 298.118)"/><path id="XMLID_249_" d="m26.84 162.79h30v46.533h-30z" fill="#f3b254" transform="matrix(.707 -.707 .707 .707 -119.307 84.079)"/><ellipse id="XMLID_298_" cx="192.913" cy="318.831" fill="#ffe666" rx="192.913" ry="192.913" transform="matrix(.707 -.707 .707 .707 -168.945 229.793)"/><path id="XMLID_4018_" d="m192.913 125.918c-.085 0-.168.003-.253.003v385.82c.085 0 .168.003.253.003 106.373 0 192.913-86.541 192.913-192.913s-86.54-192.913-192.913-192.913z" fill="#f3b254"/><circle id="XMLID_195_" cx="192.913" cy="318.831" fill="#fdf4f5" r="125.778"/><path id="XMLID_3982_" d="m192.913 193.053c-.084 0-.168.003-.253.003v251.549c.084 0 .168.003.253.003 69.465 0 125.778-56.313 125.778-125.778s-56.313-125.777-125.778-125.777z" fill="#ecebec"/><path id="XMLID_245_" d="m177.913 202.509h30v32.205h-30z" fill="#f3b254"/><path id="XMLID_216_" d="m276.087 302.034h33.147v30h-33.147z" fill="#cc9529"/><path id="XMLID_214_" d="m177.913 403.171h30v31.982h-30z" fill="#f3b254"/><path id="XMLID_204_" d="m76.591 302.034h31.668v30h-31.668z" fill="#f3b254"/><path id="XMLID_261_" d="m192.913 459.608c-77.625 0-140.778-63.152-140.778-140.777s63.153-140.778 140.778-140.778 140.777 63.153 140.777 140.778-63.152 140.777-140.777 140.777zm0-251.555c-61.083 0-110.778 49.695-110.778 110.778s49.695 110.777 110.778 110.777 110.777-49.694 110.777-110.777-49.694-110.778-110.777-110.778z" fill="#e68a2e"/><path id="XMLID_260_" d="m229.833 332.034h-51.92v-65.641h30v35.641h21.92z" fill="#9bf"/><path id="XMLID_3964_" d="m192.66 403.171h15.253v31.982h-15.253z" fill="#cc9529"/><path id="XMLID_3947_" d="m192.66 202.509h15.253v32.205h-15.253z" fill="#cc9529"/><path id="XMLID_3918_" d="m207.913 302.034v-35.641h-15.253v65.641h37.173v-30z" fill="#8080ff"/><path id="XMLID_3903_" d="m192.913 178.053c-.085 0-.168.003-.253.003v30c.085 0 .168-.003.253-.003 61.083 0 110.777 49.695 110.777 110.778s-49.694 110.777-110.777 110.777c-.085 0-.168-.003-.253-.003v30c.085 0 .168.003.253.003 77.625 0 140.777-63.152 140.777-140.777s-63.152-140.778-140.777-140.778z" fill="#b36b24"/></g></svg>